<svg width="194" height="64" viewBox="0 0 194 64" fill="none" xmlns="http://www.w3.org/2000/svg">
<g clip-path="url(#clip0_33_29246)">
<path d="M187.716 38.8052L193.07 42.356C191.333 44.9023 187.176 49.271 179.991 49.271C171.068 49.271 164.422 42.4029 164.422 33.6658C164.422 24.3684 171.138 18.0609 179.239 18.0609C187.388 18.0609 191.379 24.5083 192.671 27.989L193.376 29.7647L172.383 38.408C173.979 41.5385 176.469 43.127 179.991 43.127C183.513 43.127 185.955 41.3983 187.716 38.8052ZM171.256 33.1757L185.274 27.3819C184.499 25.4432 182.198 24.065 179.451 24.065C175.952 24.065 171.091 27.1487 171.256 33.1757Z" fill="#FF302F"/>
<path d="M154.301 2.15235H161.064V47.8461H154.301V2.15198V2.15235Z" fill="#20B15A"/>
<path d="M143.641 19.2756H150.169V47.0282C150.169 58.5448 143.335 63.2871 135.257 63.2871C127.649 63.2871 123.07 58.1946 121.356 54.0598L127.344 51.5833C128.424 54.1296 131.03 57.1435 135.257 57.1435C140.447 57.1435 143.641 53.9428 143.641 47.9627V45.7202H143.406C141.856 47.5888 138.897 49.2707 135.14 49.2707C127.297 49.2707 120.111 42.4727 120.111 33.7127C120.111 24.9055 127.297 18.0377 135.14 18.0377C138.874 18.0377 141.856 19.6963 143.406 21.5185H143.641V19.276V19.2756ZM144.11 33.7127C144.11 28.1995 140.423 24.1813 135.727 24.1813C130.983 24.1813 126.991 28.1995 126.991 33.7127C126.991 39.1555 130.983 43.1035 135.727 43.1035C140.424 43.1271 144.11 39.1555 144.11 33.7127H144.11Z" fill="#3686F7"/>
<path d="M82.9853 33.5956C82.9853 42.5896 75.9408 49.2005 67.2992 49.2005C58.6579 49.2005 51.613 42.5664 51.613 33.5956C51.613 24.5551 58.6579 17.9675 67.2992 17.9675C75.9408 17.9675 82.9853 24.5551 82.9853 33.5956ZM76.1285 33.5956C76.1285 27.9894 72.0424 24.1344 67.2992 24.1344C62.556 24.1344 58.4698 27.9894 58.4698 33.5956C58.4698 39.1554 62.556 43.0569 67.2992 43.0569C72.0427 43.0569 76.1285 39.1554 76.1285 33.5956Z" fill="#FF302F"/>
<path d="M117.246 33.6658C117.246 42.6598 110.201 49.2707 101.56 49.2707C92.9185 49.2707 85.874 42.6594 85.874 33.6658C85.874 24.6253 92.9185 18.0609 101.56 18.0609C110.201 18.0609 117.246 24.602 117.246 33.6658ZM110.366 33.6658C110.366 28.0595 106.28 24.2045 101.536 24.2045C96.7932 24.2045 92.7071 28.0595 92.7071 33.6658C92.7071 39.2255 96.7932 43.127 101.536 43.127C106.303 43.127 110.366 39.2023 110.366 33.6658Z" fill="#FFBA40"/>
<path d="M25.8293 42.4262C15.9901 42.4262 8.2882 34.5302 8.2882 24.7419C8.2882 14.954 15.9901 7.05803 25.8293 7.05803C31.1365 7.05803 35.0108 9.13703 37.8756 11.8003L42.5958 7.1049C38.6039 3.29715 33.2734 0.399902 25.8293 0.399902C12.3506 0.400277 1.00848 11.3334 1.00848 24.7419C1.00848 38.1512 12.3506 49.0839 25.8293 49.0839C33.1091 49.0839 38.6039 46.7012 42.9012 42.2627C47.3157 37.8707 48.6776 31.7034 48.6776 26.7043C48.6776 25.139 48.4899 23.5273 48.2784 22.3359H25.8293V28.8302H41.8208C41.3511 32.8952 40.0597 35.675 38.1576 37.5669C35.8563 39.8799 32.2168 42.4262 25.8293 42.4262Z" fill="#3686F7"/>
</g>
<defs>
<clipPath id="clip0_33_29246">
<rect width="193" height="63" fill="white" transform="translate(0.728088 0.303223)"/>
</clipPath>
</defs>
</svg>
